<?xml version="1.0" encoding="utf-8"?>
<!-- Generator: Adobe Illustrator 22.1.0, SVG Export Plug-In . SVG Version: 6.00 Build 0)  -->
<svg version="1.1" id="Layer_1" xmlns="http://www.w3.org/2000/svg" xmlns:xlink="http://www.w3.org/1999/xlink" x="0px" y="0px"
	 viewBox="0 0 2105.3 433.1" style="enable-background:new 0 0 2105.3 433.1;" xml:space="preserve">
<style type="text/css">
	.st0{fill:#F60210;}
	.st1{display:none;fill:#54292D;}
</style>
<g>
	<path class="st0" d="M2001.7,180.6v-85h-85c-5.9,0-10.6-4.8-10.6-10.6V16H24v224h69c5.9,0,10.6,4.8,10.6,10.6v85h85
		c5.9,0,10.6,4.8,10.6,10.6v69h1882.1v-224h-69C2006.4,191.3,2001.7,186.5,2001.7,180.6z"/>
	<path class="st1" d="M2001.7,16h-95.6v69c0,5.9,4.8,10.6,10.6,10.6h85v85c0,5.9,4.8,10.6,10.6,10.6h69V95.7V16H2001.7z"/>
	<path class="st1" d="M188.6,335.6h-85v-85c0-5.9-4.8-10.6-10.6-10.6H24v95.6v79.7h79.7h95.6v-69
		C199.3,340.3,194.5,335.6,188.6,335.6z"/>
</g>
</svg>
