<?xml version="1.0" encoding="utf-8"?>
<!-- Generator: Adobe Illustrator 22.1.0, SVG Export Plug-In . SVG Version: 6.00 Build 0)  -->
<svg version="1.1" id="Layer_1" xmlns="http://www.w3.org/2000/svg" xmlns:xlink="http://www.w3.org/1999/xlink" x="0px" y="0px"
	 viewBox="0 0 1779 433.1" style="enable-background:new 0 0 1779 433.1;" xml:space="preserve">
<style type="text/css">
	.st0{fill:#F60210;}
	.st1{display:none;fill:#54292D;}
</style>
<g>
	<path class="st0" d="M1687,154.4V83h-71.5c-4.9,0-8.9-4-8.9-8.9V16H24v251.8h58.1c4.9,0,8.9,4,8.9,8.9v71.5h71.5
		c4.9,0,8.9,4,8.9,8.9v58.1H1754V163.4h-58.1C1691,163.4,1687,159.4,1687,154.4z"/>
	<path class="st1" d="M1687,16h-80.4v58.1c0,4.9,4,8.9,8.9,8.9h71.5v71.5c0,4.9,4,8.9,8.9,8.9h58.1V83V16H1687z"/>
	<path class="st1" d="M162.4,348.2H91v-71.5c0-4.9-4-8.9-8.9-8.9H24v80.4v67h67h80.4v-58.1C171.4,352.2,167.4,348.2,162.4,348.2z"/>
</g>
</svg>
